<svg width="31" height="61" viewBox="0 0 31 61" fill="none" xmlns="http://www.w3.org/2000/svg">
<g clip-path="url(#clip0_85_1627)">
<path d="M-0.361501 54.808C0.192203 56.6705 1.09826 58.3316 2.00432 60.043C2.40702 60.9491 3.6151 60.1941 3.26274 59.3383C2.50769 57.6269 1.75264 55.9154 0.69557 54.4053C0.292876 53.902 -0.562847 54.1537 -0.361501 54.808Z" fill="#222222"/>
<path d="M5.62827 47.7608C8.6988 51.4354 12.3734 54.4053 16.1486 57.3248C17.5581 58.4322 19.0178 55.9657 17.5581 54.9086C13.8835 52.1401 10.4103 49.1199 6.635 46.4521C5.82961 45.7977 5.07456 47.0561 5.62827 47.7608Z" fill="#222222"/>
<path d="M9.85662 39.9587C10.5613 40.6634 11.5681 40.9654 12.4741 41.3178C13.6319 41.7205 14.7393 42.0728 15.897 42.4755C17.1051 42.8782 17.6588 40.9151 16.4004 40.5627C14.4373 40.0594 12.0211 38.9016 10.0076 39.3043C9.75595 39.3043 9.65528 39.7574 9.85662 39.9587Z" fill="#222222"/>
<path d="M17.1552 30.5463C17.0042 30.5463 17.0042 30.7476 17.1552 30.7476C17.3063 30.7476 17.3063 30.5463 17.1552 30.5463Z" fill="#222222"/>
<path d="M10.6619 30.9987C16.2493 31.6028 21.887 31.7034 27.5247 31.9048C28.9341 31.9551 28.9341 29.7403 27.5247 29.69C21.887 29.4886 16.2996 29.2369 10.6619 29.4886C9.70553 29.539 9.75587 30.898 10.6619 30.9987Z" fill="#222222"/>
<path d="M10.4103 21.8373C13.7325 21.3843 16.8534 20.2769 19.9743 19.0184C20.8804 18.6661 20.5783 17.307 19.5716 17.5083C16.2997 18.213 13.0782 19.0688 10.1083 20.6292C9.50426 20.8809 9.75595 21.938 10.4103 21.8373Z" fill="#222222"/>
<path d="M7.84306 12.8271C9.90686 11.7197 11.6183 9.70625 13.3298 8.09548C15.2425 6.33369 17.2057 4.62225 19.1185 2.81013C20.2259 1.75306 18.6151 0.242958 17.4574 1.14902C15.3936 2.75979 13.4808 4.52157 11.6183 6.38403C10.0075 8.04514 7.94373 9.80692 6.937 11.9211C6.68531 12.5251 7.23902 13.1291 7.84306 12.8271Z" fill="#222222"/>
<path d="M5.32637 -0.00894968C4.31963 0.7461 3.8666 2.15553 3.3129 3.26293C2.70886 4.42068 4.47064 5.42741 5.07468 4.26967C5.67872 3.11192 6.53445 1.85351 6.58478 0.494417C6.58478 -0.210296 5.7794 -0.361306 5.32637 -0.00894968Z" fill="#222222"/>
</g>
<defs>
<clipPath id="clip0_85_1627">
<rect width="30.5891" height="60.4601" fill="white"/>
</clipPath>
</defs>
</svg>
