<svg width="20" height="20" viewBox="0 0 20 20" fill="none" xmlns="http://www.w3.org/2000/svg">
<path fill-rule="evenodd" clip-rule="evenodd" d="M10 20C15.5229 20 20 15.5229 20 10C20 4.47715 15.5229 0 10 0C4.47715 0 0 4.47715 0 10C0 15.5229 4.47715 20 10 20ZM5.45818 5.74563L10 9.37907L14.5418 5.74564L14.6729 5.63636H5.32705L5.45818 5.74563ZM15.1589 6.49367L15.3333 6.34833V13.8788C15.3333 14.1465 15.1163 14.3637 14.8485 14.3637H5.15151C4.88374 14.3637 4.66667 14.1465 4.66667 13.8788V6.34833L4.84112 6.49367L4.84863 6.4998L9.69713 10.3786C9.8742 10.5203 10.1258 10.5203 10.3029 10.3786L15.1514 6.4998L15.1589 6.49367Z" fill="#222222"/>
</svg>
