<svg width="32" height="65" viewBox="0 0 32 65" fill="none" xmlns="http://www.w3.org/2000/svg">
<path d="M0.724409 57.6406C1.29772 59.569 2.23587 61.2889 3.17402 63.061C3.59097 63.9992 4.84184 63.2174 4.477 62.3313C3.69521 60.5593 2.91342 58.7872 1.81892 57.2236C1.40196 56.7024 0.515931 56.963 0.724409 57.6406Z" fill="black" stroke="black" stroke-width="1.3864"/>
<path d="M6.92686 50.3439C10.1061 54.1486 13.9109 57.2237 17.8198 60.2466C19.2792 61.3932 20.7906 58.8394 19.2792 57.7449C15.4744 54.8783 11.8782 51.7511 7.96925 48.9888C7.13534 48.3112 6.35355 49.6142 6.92686 50.3439Z" fill="black" stroke="black" stroke-width="1.3864"/>
<path d="M11.3045 42.2654C12.0342 42.995 13.0766 43.3077 14.0147 43.6726C15.2135 44.0895 16.3601 44.4544 17.5588 44.8713C18.8097 45.2883 19.383 43.2556 18.08 42.8908C16.0474 42.3696 13.5456 41.1709 11.4609 41.5878C11.2003 41.5878 11.096 42.0569 11.3045 42.2654Z" fill="black" stroke="black" stroke-width="1.3864"/>
<path d="M18.8619 32.5191C18.7055 32.5191 18.7055 32.7276 18.8619 32.7276C19.0183 32.7276 19.0183 32.5191 18.8619 32.5191Z" fill="black" stroke="black" stroke-width="1.3864"/>
<path d="M12.1386 32.9882C17.9238 33.6136 23.7612 33.7178 29.5986 33.9263C31.0579 33.9784 31.0579 31.6852 29.5986 31.6331C23.7612 31.4246 17.9759 31.164 12.1386 31.4246C11.1483 31.4767 11.2004 32.8839 12.1386 32.9882Z" fill="black" stroke="black" stroke-width="1.3864"/>
<path d="M11.8782 23.5025C15.3181 23.0334 18.5495 21.8868 21.7809 20.5838C22.7191 20.2189 22.4064 18.8117 21.364 19.0202C17.9762 19.7499 14.6406 20.6359 11.5655 22.2516C10.9401 22.5122 11.2007 23.6067 11.8782 23.5025Z" fill="black" stroke="black" stroke-width="1.3864"/>
<path d="M9.21964 14.1731C11.3565 13.0264 13.1286 10.9417 14.9006 9.27383C16.8812 7.44966 18.9138 5.6776 20.8944 3.8013C22.041 2.70679 20.3732 1.14321 19.1744 2.08136C17.0375 3.74917 15.057 5.57335 13.1286 7.50178C11.4608 9.22172 9.32387 11.0459 8.28149 13.2349C8.02089 13.8603 8.5942 14.4858 9.21964 14.1731Z" fill="black" stroke="black" stroke-width="1.3864"/>
<path d="M6.61411 0.882522C5.57173 1.66431 5.10265 3.12366 4.52934 4.27028C3.90391 5.46903 5.72808 6.51142 6.35352 5.31267C6.97895 4.11392 7.86498 2.81094 7.9171 1.40372C7.9171 0.674044 7.08319 0.517686 6.61411 0.882522Z" fill="black" stroke="black" stroke-width="1.3864"/>
</svg>
