<svg width="22" height="22" viewBox="0 0 22 22" fill="none" xmlns="http://www.w3.org/2000/svg">
<path d="M10.6512 0C4.7675 0 0 4.7675 0 10.6512C0 16.535 4.7675 21.3025 10.6512 21.3025C16.535 21.3025 21.3025 16.535 21.3025 10.6512C21.3025 4.7675 16.535 0 10.6512 0ZM16.1686 14.7541C16.1686 15.112 16.0152 15.4528 15.7511 15.6957C15.4869 15.9385 15.129 16.0578 14.7712 16.0237C13.5441 15.9087 12.3555 15.5849 11.2435 15.0566C10.1613 14.5411 9.18564 13.8509 8.33354 13.003C7.4857 12.1552 6.79124 11.1753 6.27998 10.0931C5.75168 8.98113 5.42362 7.79671 5.31284 6.56543C5.30858 6.52708 5.30858 6.48874 5.30858 6.4504C5.30858 6.13086 5.42788 5.8241 5.6409 5.58551C5.88375 5.32136 6.22459 5.16799 6.58247 5.16799H8.29519C8.94705 5.16799 9.48813 5.65368 9.56056 6.29702C9.60317 6.6762 9.67986 7.05113 9.79063 7.41327C9.93123 7.86914 9.80767 8.3591 9.47535 8.69142L8.78089 9.38588C9.50944 10.7152 10.6172 11.8229 11.9464 12.5514L12.6409 11.857C12.9732 11.5247 13.4632 11.4011 13.9191 11.5417C14.2812 11.6525 14.6561 11.7292 15.0353 11.7718C15.6786 11.8442 16.1643 12.3895 16.1643 13.0371V14.7541H16.1686Z" fill="#222222"/>
</svg>
