<svg width="67" height="67" viewBox="0 0 67 67" fill="none" xmlns="http://www.w3.org/2000/svg">
<path d="M0 20C0 8.95431 8.95431 0 20 0H46.6533C57.699 0 66.6533 8.95431 66.6533 20V46.6533C66.6533 57.699 57.699 66.6533 46.6533 66.6533H20C8.95431 66.6533 0 57.699 0 46.6533V20Z" fill="#222222"/>
<path d="M34.0239 25.0149C34.0239 25.0149 37.0684 21.808 39.119 20.9723C41.1697 20.1365 46.328 20 46.328 20V40.829C46.328 40.829 41.6396 41.0678 39.5889 41.9037C37.5382 42.7395 34.0239 45.8441 34.0239 45.8441L34.0239 25.0149Z" fill="white"/>
<path d="M48.9118 21.5348C48.9118 21.5348 48.1171 21.5573 47.0328 21.6329V41.6483C47.0328 41.6483 42.344 41.8862 40.2933 42.7221C39.226 43.1571 36.7087 44.6151 35.5502 45.5217L34.963 47.3787C34.963 47.3787 38.9472 45.1955 40.9979 44.3597C43.0485 43.5238 48.9116 42.3641 48.9116 42.3641L48.9118 21.5348Z" fill="white"/>
<path d="M51.2606 23.2742C51.2606 23.2742 50.6855 23.291 49.8514 23.3416V43.1829C49.8514 43.1829 45.1626 43.4209 43.1119 44.2567C41.8938 44.7532 39.1066 45.7412 37.8993 46.7125L36.9598 47.8899C36.9598 47.8899 42.4705 46.0143 44.5212 45.1784C46.5719 44.3426 51.2607 44.1034 51.2607 44.1034L51.2606 23.2742Z" fill="white"/>
<path d="M32.2371 25.0149C32.2371 25.0149 29.1926 21.808 27.142 20.9723C25.0913 20.1365 19.933 20 19.933 20V40.829C19.933 40.829 24.6214 41.0678 26.6721 41.9037C28.7228 42.7395 32.2371 45.8441 32.2371 45.8441L32.2371 25.0149Z" fill="white"/>
<path d="M17.3489 21.5348C17.3489 21.5348 18.1435 21.5573 19.2278 21.6329V41.6483C19.2278 41.6483 23.9167 41.8862 25.9674 42.7221C27.0346 43.1571 29.552 44.6151 30.7105 45.5217L31.2976 47.3787C31.2976 47.3787 27.3134 45.1955 25.2628 44.3597C23.2121 43.5239 17.3491 42.3644 17.3491 42.3644L17.3489 21.5348Z" fill="white"/>
<path d="M15.0001 23.2742C15.0001 23.2742 15.5752 23.291 16.4093 23.3416V43.1829C16.4093 43.1829 21.0982 43.4209 23.1489 44.2567C24.3669 44.7532 27.1541 45.7412 28.3615 46.7125L29.3009 47.8899C29.3009 47.8899 23.7902 46.0143 21.7395 45.1784C19.6892 44.343 15.0004 44.1037 15.0004 44.1037L15.0001 23.2742Z" fill="white"/>
</svg>
