<svg width="67" height="67" viewBox="0 0 67 67" fill="none" xmlns="http://www.w3.org/2000/svg">
<path d="M0 20C0 8.95431 8.95431 0 20 0H46.6533C57.699 0 66.6533 8.95431 66.6533 20V46.6533C66.6533 57.699 57.699 66.6533 46.6533 66.6533H20C8.95431 66.6533 0 57.699 0 46.6533V20Z" fill="#222222"/>
<path d="M49.5226 20.5779L41.4324 26.8492L36.9239 22.42L41.4105 16.9823C41.6028 16.7494 41.5697 16.4046 41.3365 16.2123C41.1041 16.0203 40.7588 16.0534 40.5665 16.2863L35.4416 22.4975L36.1144 23.1585C36.097 23.1716 36.0783 23.182 36.0615 23.1962C34.1902 24.7776 31.5549 25.0527 29.9475 25.0527C29.7849 25.0527 29.6329 25.0498 29.4932 25.0452C29.4809 25.045 29.4686 25.0447 29.4564 25.0447C28.9318 25.0447 28.3973 25.4042 28.248 25.9077L24.4658 38.6364C19.2773 41.2077 19.0588 42.2451 18.9757 42.6444C18.9095 42.9614 18.9869 43.2688 19.1939 43.5097C20.0598 44.5183 21.6405 44.2044 22.6859 43.9975L22.9497 43.9462C23.1087 43.9163 23.3683 43.8503 23.7273 43.7589C27.0234 42.9216 28.9459 42.7189 29.4393 43.1561C29.4681 43.1817 29.5116 43.2202 29.4916 43.3749C29.4376 43.7915 29.0156 44.1417 28.5688 44.5121C28.217 44.8035 27.8533 45.1053 27.6041 45.4905C27.0533 46.3414 26.9644 47.05 27.3399 47.5968C28.0624 48.6494 30.2616 48.7017 34.6953 47.772C34.8449 47.7405 34.9614 47.7161 35.0367 47.7017C40.2129 46.7242 43.4594 46.8753 44.6867 48.1518C45.1954 48.6806 45.3309 49.4244 45.1009 50.426C45.0333 50.7204 45.2171 51.0139 45.5117 51.0815C45.5528 51.0908 45.594 51.0954 45.6346 51.0954C45.8837 51.0954 46.1089 50.9239 46.1671 50.6707C46.4818 49.3005 46.2489 48.198 45.4751 47.3935C43.215 45.0431 36.9066 46.2351 34.8337 46.6269C34.7535 46.6419 34.6299 46.6678 34.4707 46.7012C29.2656 47.7931 28.3866 47.1889 28.2419 46.9776C28.1473 46.8401 28.255 46.4982 28.5226 46.0848C28.6807 45.8404 28.9654 45.6043 29.267 45.3543C29.8295 44.8876 30.4673 44.3591 30.5765 43.5154C30.6545 42.9125 30.396 42.5423 30.1652 42.3375C29.1879 41.4718 26.7774 41.8554 23.4577 42.6986C23.1439 42.7784 22.8726 42.8474 22.7476 42.8709C22.6613 42.8872 22.5694 42.9053 22.4733 42.9243C21.6958 43.0784 20.5304 43.31 20.0569 42.8329C20.1341 42.6339 20.7457 41.642 25.5493 39.3239L25.6396 39.2801C25.7448 39.2291 25.8255 39.1487 25.8781 39.0539L37.6723 35.3942C38.1846 35.235 38.5647 34.6717 38.5529 34.1338C38.4728 30.3659 39.6768 28.4856 40.508 27.6411C40.5366 27.612 40.5598 27.581 40.5849 27.5505L41.3475 28.2995L50.193 21.4427C50.4318 21.2576 50.4753 20.9139 50.2902 20.6751C50.1048 20.4363 49.7608 20.3933 49.5226 20.5779ZM33.7212 31.4033C33.6208 31.4033 33.5236 31.391 33.429 31.3705L26.2037 38.361L25.4441 37.5736L32.538 30.7097C32.424 30.5102 32.3537 30.2821 32.3537 30.0358C32.3537 29.281 32.9659 28.6683 33.7212 28.6683C34.4761 28.6683 35.0887 29.281 35.0887 30.0358C35.0887 30.7906 34.4761 31.4033 33.7212 31.4033Z" fill="white"/>
</svg>
